<svg width="80.322" height="86.28" viewBox="0 0 80.322 86.28" xmlns="http://www.w3.org/2000/svg"><g id="svgGroup" stroke-linecap="round" fill-rule="evenodd" font-size="9pt" stroke="#eb5e28" stroke-width="0.25mm" fill="#eb5e28" style="stroke:#eb5e28;stroke-width:0.25mm;fill:#eb5e28"><path d="M 0 82.959 L 0 75 A 47.335 47.335 0 0 0 3.241 76.194 Q 5.804 77.04 8.936 77.808 A 45.878 45.878 0 0 0 19.252 79.097 A 50.91 50.91 0 0 0 19.971 79.102 A 33.384 33.384 0 0 0 23.914 78.882 Q 26.791 78.539 29.053 77.662 A 14.422 14.422 0 0 0 31.936 76.174 A 10.724 10.724 0 0 0 34.692 73.511 A 10.352 10.352 0 0 0 36.499 68.842 A 13.561 13.561 0 0 0 36.621 66.993 A 13.757 13.757 0 0 0 36.355 64.215 Q 35.966 62.329 35.01 60.865 Q 33.772 58.971 31.282 57.336 A 22.521 22.521 0 0 0 29.663 56.373 A 44.581 44.581 0 0 0 27.064 55.08 Q 23.914 53.629 19.482 52.051 A 61.148 61.148 0 0 1 15.21 50.361 A 45.651 45.651 0 0 1 11.475 48.511 A 27.457 27.457 0 0 1 8.108 46.317 A 21.596 21.596 0 0 1 5.664 44.141 A 16.255 16.255 0 0 1 2.124 38.477 A 18.652 18.652 0 0 1 1.157 34.558 A 24.957 24.957 0 0 1 0.928 31.104 A 18.76 18.76 0 0 1 1.566 26.108 A 15.095 15.095 0 0 1 3.833 21.314 A 17.666 17.666 0 0 1 9.743 16.106 A 22.089 22.089 0 0 1 11.89 15.064 Q 17.041 12.891 23.73 12.891 A 53.321 53.321 0 0 1 30.213 13.27 A 43.356 43.356 0 0 1 34.302 13.965 A 49.357 49.357 0 0 1 40.331 15.691 A 41.64 41.64 0 0 1 43.213 16.846 L 40.625 23.975 A 56.208 56.208 0 0 0 33.119 21.461 A 62.11 62.11 0 0 0 32.446 21.29 A 36.8 36.8 0 0 0 23.535 20.215 Q 19.754 20.215 16.95 21.127 A 13.89 13.89 0 0 0 15.796 21.558 A 12.328 12.328 0 0 0 13.171 23.058 A 9.703 9.703 0 0 0 10.986 25.342 A 9.554 9.554 0 0 0 9.43 29.526 A 12.396 12.396 0 0 0 9.326 31.153 A 14.706 14.706 0 0 0 9.568 33.896 Q 9.881 35.543 10.598 36.867 A 8.751 8.751 0 0 0 10.913 37.403 Q 12.5 39.893 15.991 41.822 Q 18.337 43.118 21.707 44.491 A 101.677 101.677 0 0 0 25.244 45.85 A 84.123 84.123 0 0 1 30.306 47.872 Q 33.431 49.246 35.938 50.708 A 21.627 21.627 0 0 1 39.702 53.455 A 16.874 16.874 0 0 1 42.627 56.958 A 14.377 14.377 0 0 1 44.383 61.286 Q 44.821 63.138 44.903 65.297 A 26.665 26.665 0 0 1 44.922 66.309 A 21.302 21.302 0 0 1 44.277 71.67 A 16.619 16.619 0 0 1 41.772 77.124 A 18.859 18.859 0 0 1 35.317 82.809 A 23.793 23.793 0 0 1 32.959 83.936 A 29.64 29.64 0 0 1 26.428 85.756 Q 23.451 86.247 20.08 86.278 A 49.575 49.575 0 0 1 19.629 86.28 A 75.168 75.168 0 0 1 14.264 86.095 A 63.82 63.82 0 0 1 11.963 85.889 A 57.701 57.701 0 0 1 8.083 85.342 A 45.752 45.752 0 0 1 5.322 84.766 A 33.03 33.03 0 0 1 2.499 83.955 A 24.207 24.207 0 0 1 0 82.959 Z M 80.322 37.891 L 80.322 43.702 L 52.148 43.702 L 52.148 38.624 L 63.721 27.295 Q 67.725 23.389 69.873 20.899 Q 72.021 18.409 72.827 16.407 A 11.324 11.324 0 0 0 73.63 12.396 A 12.921 12.921 0 0 0 73.633 12.11 A 8.726 8.726 0 0 0 73.418 10.113 Q 73.059 8.587 72.103 7.53 A 5.452 5.452 0 0 0 71.729 7.154 A 6.429 6.429 0 0 0 68.836 5.665 Q 67.812 5.42 66.602 5.42 Q 63.623 5.42 61.108 6.568 A 23.403 23.403 0 0 0 58.256 8.129 A 30.219 30.219 0 0 0 56.006 9.717 L 52.734 5.372 A 25.673 25.673 0 0 1 59.082 1.465 A 18.164 18.164 0 0 1 64.399 0.116 A 22.331 22.331 0 0 1 66.699 0 A 20.622 20.622 0 0 1 70.719 0.368 Q 74.282 1.077 76.66 3.15 Q 80.273 6.299 80.273 11.768 A 14.303 14.303 0 0 1 79.584 16.252 A 13.158 13.158 0 0 1 78.931 17.872 A 19.84 19.84 0 0 1 77.271 20.667 Q 76.282 22.071 74.976 23.487 Q 72.363 26.319 68.604 29.883 L 60.303 37.891 L 80.322 37.891 Z" vector-effect="non-scaling-stroke"/></g></svg>